<svg width="21" height="51" viewBox="0 0 21 51" fill="none" xmlns="http://www.w3.org/2000/svg">
<g id="Group" opacity="0.8">
<path id="Vector" d="M2.95394 15.3592C2.85394 18.9992 2.71397 24.0492 2.57397 30.1692C2.57397 30.1692 2.36397 39.2592 2.57397 44.2192C2.71397 47.4292 3.12396 49.2391 2.93395 50.0691C2.93395 50.0991 2.90394 50.1991 2.95394 50.2891C3.25394 50.8691 5.97397 50.4892 7.13397 49.5292C8.94397 48.0392 7.45396 44.7491 6.75396 38.5091C5.84396 30.4191 7.82396 31.1691 6.75396 24.0791C6.26396 20.7891 5.23397 16.6092 7.13397 14.9592C7.96397 14.2492 9.03396 13.8192 9.03396 13.8192C9.25396 13.5792 9.55397 13.1992 9.79397 12.6792C10.084 12.0492 10.1439 11.4791 10.1739 10.0191C10.2039 8.56915 10.2239 7.84915 10.1739 7.35915C10.0339 5.90915 9.74397 5.29915 9.79397 3.93915C9.79397 3.85915 9.80397 3.56915 9.79397 3.17915C9.76397 2.24915 9.73397 1.37915 9.41397 1.27915C9.01397 1.14915 8.32395 2.32915 8.27395 2.41915C7.99395 2.90915 7.88395 3.33915 7.77395 3.77915C7.65395 4.23915 7.56394 4.75915 7.51394 5.44915C7.42394 6.74915 7.60394 6.84915 7.51394 8.10915C7.45394 8.91915 7.34397 9.47915 7.13397 10.0091C7.05397 10.2191 6.67396 11.1891 6.37396 11.1491C6.25396 11.1291 6.11395 10.9491 5.99395 10.0091C5.81395 8.65915 5.94395 7.78915 5.99395 6.58915C6.07395 4.84915 5.88395 5.15915 5.99395 3.92915C6.09395 2.83915 6.27395 2.19915 5.99395 1.26915C5.94395 1.10915 5.64394 0.12915 5.23394 0.12915C4.82394 0.12915 4.52396 1.10915 4.47396 1.26915C4.17396 2.25915 4.45396 2.77915 4.47396 3.92915C4.50396 5.21915 4.15396 5.00915 4.09396 6.58915C4.05396 7.53915 4.16396 8.01915 4.09396 9.62915C4.05396 10.5492 3.99395 11.0491 3.71395 11.1491C3.39395 11.2591 2.97394 10.7892 2.95394 10.7691C2.47394 10.2291 2.55397 9.48915 2.57397 8.86915C2.63397 6.96915 2.13396 7.23915 2.19396 5.44915C2.23396 4.26915 2.48396 3.42915 2.19396 2.02915C2.11396 1.64915 2.01396 1.30915 1.81396 1.26915C1.44396 1.19915 0.933945 2.13915 0.673945 2.78915C0.363945 3.57915 0.313971 4.23915 0.293971 6.20915C0.273971 7.97915 0.313971 7.73915 0.293971 8.86915C0.273971 10.1991 0.213971 10.9891 0.293971 12.2891C0.383971 13.6591 0.523945 13.9691 0.673945 14.1891C1.27395 15.0891 2.44394 15.2791 2.95394 15.3291V15.3592Z" fill="#ACACAC"/>
<path id="Vector_2" d="M13.454 15.3593C13.354 18.9993 13.214 24.0492 13.074 30.1692C13.074 30.1692 12.864 39.2593 13.074 44.2193C13.214 47.4293 13.624 49.2392 13.434 50.0692C13.434 50.0992 13.404 50.1992 13.454 50.2892C13.754 50.8692 16.474 50.4893 17.634 49.5293C19.234 48.2093 17.854 45.7292 17.254 38.5092C16.944 34.8292 16.754 32.4692 17.014 29.3992C17.224 26.9492 17.554 26.0292 17.254 24.0792C17.084 22.9692 16.754 21.8492 17.014 20.2792C17.184 19.2792 17.514 18.4993 17.774 17.9993C18.204 17.6292 18.814 17.0092 19.294 16.0992C19.824 15.0892 19.954 14.2092 20.054 13.4392C20.274 11.7592 19.924 11.5793 20.054 9.63925C20.164 8.07925 20.404 8.05925 20.434 6.59925C20.464 5.39925 20.484 4.54925 20.054 3.55925C19.524 2.33925 18.634 1.64925 18.154 1.27925C17.594 0.84925 16.854 0.279251 15.734 0.139251C15.214 0.0792507 14.214 -0.050752 13.594 0.519248C13.044 1.01925 13.164 1.72925 13.214 3.93925C13.244 5.32925 13.214 6.72925 13.214 8.11925C13.214 10.4292 13.174 10.6592 13.214 11.9192C13.264 13.3792 13.374 14.5692 13.454 15.3392V15.3593Z" fill="#ACACAC"/>
</g>
</svg>
