<svg width="37" height="48" viewBox="0 0 37 48" fill="none" xmlns="http://www.w3.org/2000/svg">
<g id="Group" opacity="0.8">
<path id="Vector" d="M2.70408 15.0392C3.49408 17.6792 4.88408 19.5292 4.89408 19.5392C5.00408 19.6892 5.9741 21.6292 7.9141 25.4992C9.9541 29.5692 11.2741 32.9092 12.1841 35.2192C13.4441 38.4092 15.2941 41.3692 16.3541 44.6292C16.5341 45.1792 16.8541 46.2192 17.8141 46.9292C18.5241 47.4592 19.6741 47.8792 23.4541 47.1492C27.5341 46.3592 30.3641 45.0592 31.6041 44.4492C34.6741 42.9392 36.6141 41.9592 36.8341 40.2792C36.8941 39.8392 36.7941 39.6892 36.2141 37.3492C35.9241 36.1692 35.6741 34.9792 35.3841 33.7992C34.6841 30.9292 34.1841 28.1392 32.8941 22.0892C30.3841 10.2892 30.0941 10.6292 30.3041 9.02915C30.4441 7.98915 30.7441 6.45915 29.8941 5.68915C28.8441 4.73915 26.7441 5.55915 24.2541 6.51915C14.2141 10.3592 9.20408 12.2792 7.73408 12.3492C6.08408 12.4292 3.16409 12.3392 2.61409 13.6992C2.46409 14.0692 2.53409 14.4392 2.71409 15.0592L2.70408 15.0392Z" fill="#FFFBF0"/>
<path id="Vector_2" d="M27.1241 16.2791C24.9441 17.3691 22.564 18.1491 20.274 18.9791C16.524 20.3391 12.8641 21.3991 8.97406 21.7791C8.20406 21.9291 7.42406 22.0291 6.63406 22.0391C6.51406 22.0791 6.39404 22.1291 6.26404 22.1691C6.70404 23.0491 7.25404 24.1491 7.92404 25.4791C9.96404 29.5491 11.2841 32.8891 12.1941 35.1991C12.7041 36.4791 13.3041 37.7191 13.9041 38.9591C17.6641 38.8291 21.4141 37.6991 25.0441 36.8391C27.1941 36.3291 29.354 35.7591 31.394 34.8991C32.744 34.3391 33.954 33.4991 35.114 32.5991C34.534 30.0791 34.014 27.2891 32.894 22.0491C32.024 17.9691 31.424 15.3491 31.014 13.5891C29.804 14.6091 28.5341 15.5491 27.1041 16.2591L27.1241 16.2791Z" fill="#7C6233"/>
<path id="Vector_3" opacity="0.3" d="M23.6041 44.9292C21.2841 42.0792 20.2541 37.7892 19.2341 34.3392C18.6241 32.2892 17.9341 30.2492 17.5041 28.1492C17.1041 26.1892 17.0541 24.1592 16.5241 22.2192C15.4741 18.3692 14.5041 14.4592 13.3141 10.6492C10.2241 11.7792 8.38407 12.3592 7.59407 12.3892C5.94407 12.4692 3.02407 12.3792 2.47407 13.7392C2.32407 14.1092 2.39408 14.4792 2.57408 15.0992C3.36408 17.7392 4.75405 19.5892 4.76405 19.5992C4.87405 19.7492 5.84407 21.6892 7.78407 25.5592C9.82407 29.6292 11.1441 32.9692 12.0541 35.2792C13.3141 38.4692 15.1641 41.4292 16.2241 44.6892C16.4041 45.2392 16.7241 46.2792 17.6841 46.9892C18.3941 47.5192 19.5441 47.9392 23.3241 47.2092C24.2041 47.0392 25.0241 46.8392 25.7841 46.6392C24.9341 46.2092 24.1841 45.6392 23.6041 44.9392V44.9292Z" fill="#A0A0A0"/>
<path id="Vector_4" d="M1.0441 12.1092C0.974099 12.2492 0.964083 12.4492 0.934083 12.8392C0.904083 13.4092 0.94408 14.3692 1.24408 14.8292C1.68408 15.5092 2.96408 15.4692 6.15408 14.9392C8.55408 14.5392 9.7541 14.3392 11.3841 13.8992C11.9741 13.7392 13.2441 13.3892 17.6541 11.8192C23.1741 9.85918 20.3041 10.7192 24.4541 9.21918C24.4541 9.21918 25.9141 8.68918 29.1641 6.60918C29.6141 6.31918 30.2641 5.88918 30.4241 5.14918C30.6041 4.27918 30.0641 3.19918 29.3841 3.05918C28.9541 2.96918 28.5641 3.27918 28.4441 3.36918C26.1241 5.13918 23.3441 6.19918 20.8141 7.63918C19.3141 8.49918 17.5441 9.07918 14.0141 10.2392C10.8041 11.2992 9.19407 11.8292 7.95407 11.8992C4.62407 12.0992 1.57408 11.0492 1.05408 12.0992L1.0441 12.1092Z" fill="#7C6233"/>
<path id="Vector_5" d="M0.934068 9.70922C0.744068 10.8492 1.54408 11.7692 1.66408 11.9092C2.30408 12.6192 3.14408 12.8492 3.75408 12.9592C6.90408 13.5292 11.0741 12.2692 11.1741 12.2392C16.7341 10.5592 16.5441 10.8292 22.2541 8.90922C24.7941 8.05922 27.6041 7.06922 28.3241 5.15922C28.7241 4.09922 28.6441 2.96922 28.6441 2.96922C28.6041 2.43922 28.5341 1.43922 27.9141 0.76922C27.1241 -0.0807802 25.7941 -0.0307799 24.8841 0.0292201C21.3941 0.27922 18.4141 1.17922 16.1041 1.89922C15.8441 1.97922 13.1141 2.82922 9.51405 4.07922C9.51405 4.07922 7.94408 4.62922 5.22408 5.84922C4.50408 6.16922 2.81407 6.94922 1.56407 8.45922C1.31407 8.75922 1.02407 9.15922 0.934068 9.70922Z" fill="#7C6233"/>
<path id="Vector_6" d="M0.83404 9.39929C0.92404 9.76929 1.39404 9.96929 1.77404 10.1293C2.80404 10.5693 3.77404 10.4693 3.96404 10.4493C8.87404 9.85929 11.494 8.99929 11.494 8.99929C15.474 7.68929 14.344 7.86929 20.174 5.76929C20.174 5.76929 22.5741 4.90929 25.5041 2.95929C25.5041 2.95929 26.2841 2.43929 27.0741 1.39929C27.5441 0.779287 27.514 0.619286 27.494 0.559286C27.304 -0.000713646 25.3141 0.179286 23.9441 0.349286C19.9341 0.829286 16.8841 1.66929 16.4141 1.79929C14.3841 2.36929 12.4441 3.04929 8.57406 4.39929C8.57406 4.39929 5.69404 5.40929 2.61404 7.41929C1.83404 7.92929 0.67404 8.74929 0.83404 9.39929Z" fill="#8E7C5E"/>
<path id="Vector_7" d="M1.66406 11.9193C1.66406 11.7793 1.63405 11.6293 1.56405 11.6093C1.37405 11.5493 0.794058 12.2993 0.944058 12.8593C1.06406 13.2993 1.61405 13.4993 1.87405 13.5893C4.36405 14.4493 10.064 12.6093 10.764 12.3693C13.604 11.4293 15.0241 10.9593 15.7241 10.7193C21.0541 8.88934 22.614 8.18934 23.3741 7.83934C26.994 6.14934 26.164 5.98934 27.714 5.53934C28.214 5.38934 29.1541 5.16934 29.4741 4.42934C29.6541 4.02934 29.6541 3.46934 29.3741 3.07934C29.174 2.79934 28.7741 2.54934 28.5441 2.65934C28.3841 2.73934 28.354 2.97934 28.334 3.07934C28.194 3.86934 27.0241 4.45934 26.4741 4.73934C21.8841 7.07934 24.664 6.19934 20.894 7.62934C19.774 8.05934 16.354 9.32934 10.654 11.0293C9.24405 11.4493 7.52404 11.9493 5.17404 12.1493C4.18404 12.2393 3.35406 12.2493 2.79406 12.2493" fill="#8E7C5E"/>
</g>
</svg>
