<svg width="18" height="31" viewBox="0 0 18 31" fill="none" xmlns="http://www.w3.org/2000/svg">
<g id="Group" opacity="0.8">
<path id="Vector" d="M11.804 30.5792C10.654 30.1292 10.474 28.9492 9.27404 24.8492C9.27404 24.8492 7.35403 18.2492 5.11403 12.4892C3.85403 9.2592 3.23403 7.6392 2.58403 6.7592C1.66403 5.4892 0.674038 4.59921 0.964038 3.71921C1.11404 3.27921 1.49405 3.1092 3.47405 2.2792C6.62405 0.959205 6.86403 0.8792 7.23403 1.0092C7.82403 1.2292 8.06404 1.7492 9.21404 5.1292C9.88404 7.0792 10.2141 8.0592 10.6641 9.4292C11.4741 11.9492 11.8841 13.2092 12.2941 14.2692C13.2441 16.7292 13.774 17.3292 16.264 22.4992C17.684 25.4492 17.874 26.0092 17.714 26.7992C17.214 29.2792 13.824 31.3692 11.814 30.5792H11.804Z" fill="#F9F2E8"/>
<path id="Vector_2" d="M12.264 14.5994C10.294 15.1894 8.36405 15.8794 6.52405 16.7694C8.01405 21.0594 9.09406 24.7694 9.09406 24.7694C10.2841 28.8694 10.4741 30.0494 11.6241 30.4994C13.6341 31.2894 17.034 29.1994 17.524 26.7194C17.684 25.9294 17.4941 25.3694 16.0741 22.4194C13.7341 17.5494 13.124 16.7294 12.264 14.5994Z" fill="#CE912E"/>
<g id="Group_2">
<path id="Vector_3" d="M1.32404 4.78928C1.57404 4.67928 1.43403 4.30928 1.68403 4.06928C2.05403 3.70928 2.67404 4.27928 3.47404 4.06928C4.23404 3.85928 4.10403 3.22928 4.90403 2.98928C5.42403 2.82928 5.55404 3.07928 6.69404 2.98928C7.60404 2.90928 7.74402 2.72927 7.76402 2.62927C7.81402 2.42927 7.50402 2.24928 7.58402 2.08928C7.65402 1.93928 7.97403 2.06929 8.12403 1.90929C8.30403 1.70929 8.13402 1.12928 7.76402 0.839281C7.40402 0.559281 6.94404 0.609289 6.50404 0.659289C6.18404 0.699289 5.79403 0.749289 5.43403 1.01929C5.03403 1.31929 5.04404 1.61928 4.54404 1.91928C4.35404 2.03928 4.20404 2.11928 4.00404 2.09928C3.68404 2.05928 3.61403 1.77928 3.28403 1.73928C2.99403 1.70928 2.77403 1.89928 2.74403 1.91928C2.47403 2.14928 2.61404 2.39928 2.38404 2.63928C2.08404 2.95928 1.67403 2.66929 1.31403 2.99928C1.15403 3.14929 1.24402 3.19929 0.954017 3.71929C0.694017 4.18929 0.554032 4.26929 0.594032 4.43929C0.654032 4.69929 1.07403 4.90929 1.31403 4.79929L1.32404 4.78928Z" fill="#3A352F"/>
<path id="Vector_4" d="M13.564 19.8094C13.224 19.9294 13.074 19.8794 13.024 19.9894C12.954 20.1394 13.204 20.2594 13.204 20.5294C13.204 20.8794 12.804 20.9994 12.844 21.2494C12.884 21.4694 13.264 21.6294 13.564 21.6094C13.714 21.6094 13.734 21.5494 14.104 21.4294C14.524 21.2894 14.584 21.3294 14.644 21.2494C14.764 21.0594 14.434 20.8394 14.284 20.1794C14.214 19.8794 14.224 19.6994 14.104 19.6394C13.994 19.5894 13.904 19.7094 13.564 19.8194V19.8094Z" fill="#BC7228"/>
<path id="Vector_5" d="M13.4641 27.5494C13.0941 27.3194 13.0241 27.1694 12.8941 27.1994C12.7141 27.2394 12.8041 27.5394 12.5741 27.7194C12.2741 27.9594 11.8541 27.6794 11.6741 27.8894C11.5141 28.0794 11.6741 28.5194 11.9241 28.7694C12.0541 28.8994 12.1041 28.8794 12.4941 29.1194C12.9441 29.3994 12.9541 29.4794 13.0641 29.4694C13.3241 29.4494 13.2541 29.0094 13.7041 28.4294C13.9141 28.1594 14.0741 28.0594 14.0241 27.9094C13.9741 27.7794 13.8141 27.7794 13.4541 27.5594L13.4641 27.5494Z" fill="#BC7228"/>
<path id="Vector_6" d="M10.144 22.2092C9.81396 22.3192 9.67397 22.2692 9.62397 22.3792C9.56397 22.5392 9.81396 22.6892 9.83396 22.9992C9.86396 23.3992 9.46397 23.5092 9.52397 23.7892C9.57397 24.0392 9.96397 24.2392 10.244 24.2292C10.394 24.2292 10.404 24.1692 10.764 24.0592C11.174 23.9292 11.234 23.9792 11.284 23.8892C11.394 23.6792 11.064 23.4192 10.864 22.6592C10.774 22.3092 10.784 22.1092 10.654 22.0392C10.544 21.9792 10.464 22.0992 10.134 22.2092H10.144Z" fill="#BC7228"/>
<path id="Vector_7" d="M10.334 17.3192C10.324 17.6392 9.994 17.6992 9.974 18.0392C9.974 18.1892 10.034 18.1692 10.154 18.5792C10.254 18.9392 10.234 19.0592 10.334 19.1192C10.384 19.1492 10.494 19.1792 10.874 18.9392C11.374 18.6192 11.714 18.3992 11.764 18.0392C11.814 17.7292 11.594 17.7092 11.404 16.9692C11.314 16.6292 11.334 16.5192 11.224 16.4292C10.934 16.1992 10.214 16.4592 10.154 16.7892C10.114 16.9892 10.344 17.0592 10.334 17.3292V17.3192Z" fill="#BC7228"/>
<path id="Vector_8" d="M15.184 24.0393C15.004 24.3593 14.644 24.2493 14.444 24.5693C14.354 24.7193 14.444 24.7393 14.344 25.2093C14.264 25.6193 14.174 25.7393 14.244 25.8493C14.284 25.9093 14.374 25.9993 14.874 25.9493C15.554 25.8893 16.004 25.8493 16.244 25.5193C16.454 25.2393 16.244 25.0893 16.444 24.2493C16.534 23.8593 16.614 23.7593 16.544 23.6093C16.374 23.2293 15.514 23.1093 15.274 23.4093C15.134 23.5893 15.324 23.7793 15.174 24.0493L15.184 24.0393Z" fill="#BC7228"/>
<path id="Vector_9" d="M7.824 16.9593C7.484 17.0793 7.34399 17.0293 7.28399 17.1393C7.23399 17.2393 7.33399 17.3193 7.46399 17.6793C7.60399 18.0293 7.55398 18.0693 7.64398 18.2193C7.80398 18.4593 8.14398 18.6693 8.36398 18.5793C8.63398 18.4593 8.584 17.8893 8.544 17.3193C8.514 16.9093 8.43398 16.8193 8.36398 16.7793C8.25398 16.7293 8.164 16.8493 7.824 16.9593Z" fill="#BC7228"/>
</g>
</g>
</svg>
