<svg width="35" height="83" viewBox="0 0 35 83" fill="none" xmlns="http://www.w3.org/2000/svg">
<g id="Group" opacity="0.8">
<path id="Vector" d="M12.5539 9.38914C12.5339 10.5591 12.0239 11.6591 11.4639 12.2991C10.5539 13.3391 9.51395 13.1291 7.46395 13.7491C7.16395 13.8391 4.29394 14.7391 2.74394 16.2891C0.873945 18.1591 0.913937 20.9591 0.923937 23.1891C0.953937 29.2491 0.393952 35.2991 0.563952 41.3591C0.653952 44.7291 0.753952 48.5991 0.563952 53.7191C0.283952 61.0991 1.40395 68.5491 0.563952 75.8891C0.493952 76.4891 0.253963 78.2791 1.29396 79.5191C1.70396 80.0091 2.20394 80.2991 2.74394 80.6091C4.05394 81.3591 5.24395 81.6191 5.65395 81.6991C9.80395 82.5291 15.104 82.4291 15.104 82.4291C22.654 82.2791 22.484 81.6191 25.074 82.0691C25.614 82.1691 26.7639 82.3991 28.1839 82.0691C30.2839 81.5791 31.564 80.1791 31.814 79.8891C33.084 78.4491 33.414 76.7991 33.634 75.1691C34.264 70.4891 33.824 67.0791 33.634 63.1791C33.584 62.0791 33.604 59.7791 33.634 55.1891C33.684 48.6791 33.8439 47.9091 33.9939 39.9291C34.2539 25.8991 33.7339 28.7391 33.9939 26.8491C34.1239 25.8791 34.534 23.1491 33.634 19.9491C32.884 17.2891 31.7839 16.2491 31.4539 15.9491C30.5539 15.1491 29.5239 14.8091 27.4539 14.1291C24.5539 13.1791 23.6439 13.3591 22.7339 12.3091C21.8839 11.3391 21.6939 10.0791 21.6439 9.76914C21.3639 7.98914 22.1639 7.19914 21.6439 6.49914C21.4639 6.25914 21.2239 6.15914 18.0139 6.13914C15.1939 6.11914 17.9139 6.20914 13.6539 6.49914C13.2639 6.52914 12.834 6.54914 12.564 6.85914C12.084 7.39914 12.584 8.19914 12.564 9.39914L12.5539 9.38914Z" fill="#E0F0FF"/>
<path id="Vector_2" d="M15.964 0.719258C14.004 0.699258 13.1539 0.479258 12.2639 1.11926C12.1139 1.22926 11.784 1.46926 11.524 1.91926C11.394 2.14926 11.244 2.48926 11.154 3.91926C11.084 4.93926 11.054 5.43926 11.154 5.91926C11.264 6.45926 11.394 7.09926 11.894 7.51926C12.254 7.82926 12.754 7.85926 13.744 7.91926C14.454 7.95926 14.914 7.93926 15.594 7.91926C16.314 7.89926 17.044 7.88926 17.814 7.91926C19.694 7.99926 20.3639 8.32926 21.5139 7.91926C21.8739 7.78926 22.064 7.71926 22.254 7.51926C22.774 6.96926 22.484 6.30926 22.624 4.31926C22.694 3.26926 22.814 2.93926 22.624 2.31926C22.554 2.09926 22.374 1.51926 21.884 1.11926C21.284 0.629258 20.574 0.689258 20.034 0.719258C20.034 0.719258 19.324 0.759258 15.964 0.719258Z" fill="#005C9F"/>
<path id="Vector_3" d="M0.563928 31.0992C-0.516072 33.1592 0.433928 35.7192 0.563928 43.3092C0.693928 51.0492 -0.23607 51.9292 0.50393 54.0392C1.98393 58.2492 6.09394 56.6392 15.8239 57.2592C28.8939 58.0992 31.5439 59.9092 33.5739 56.3592C34.6639 54.4392 34.2439 53.0792 34.0139 44.8492C33.7939 36.7992 35.2139 34.8892 33.9339 31.9392C32.8239 29.3992 30.8339 29.9892 22.7239 29.9292C17.3939 29.8892 12.0639 30.0092 6.73391 29.9292C3.57391 29.8792 1.62392 29.0792 0.553918 31.0892L0.563928 31.0992Z" fill="#005C9F"/>
<path id="Vector_4" opacity="0.5" d="M14.0039 11.5692C13.2939 13.2092 12.9339 14.0292 12.5539 14.4792C11.4139 15.8092 9.98389 14.8092 7.46389 15.9292C7.15389 16.0692 5.00388 17.0592 3.83388 19.1992C3.03388 20.6492 3.0739 21.9292 3.1039 24.2892C3.1339 27.0792 2.9839 29.8592 3.1039 32.6492C3.1739 34.1992 3.38389 38.8792 3.46389 42.0992C3.53389 44.6692 3.47389 44.4392 3.46389 54.4592C3.45389 64.6292 3.51389 63.6192 3.46389 64.6292C3.34389 67.2892 3.62389 69.9592 3.46389 72.6192C3.34389 74.6092 3.1439 76.2392 4.1939 77.3392C4.7339 77.9092 5.64389 78.0892 7.46389 78.4292C8.07389 78.5392 10.5739 78.9992 14.3639 78.7892C16.4239 78.6792 16.5339 78.4992 16.5439 78.4292C16.5839 78.1192 15.0139 77.5792 13.6339 77.3392C12.0839 77.0692 11.7039 77.3392 10.3639 76.9792C9.53388 76.7492 8.72389 76.5292 8.18389 75.8892C7.26389 74.7992 7.6539 73.0792 7.8239 72.2592C8.3839 69.4092 7.6539 66.4392 7.8239 63.5392C8.1339 58.2192 7.8239 52.8792 7.8239 47.5492C7.8239 43.6692 7.9539 39.7992 7.8239 35.9192C7.6939 32.0392 8.4939 28.1092 7.8239 24.2892C7.6939 23.5492 7.36389 21.8792 8.18389 20.2892C8.92389 18.8692 10.3439 17.9892 10.7239 17.7492C12.2739 16.7792 12.8339 17.1592 13.6339 16.2992C14.3439 15.5292 14.4839 14.5992 14.7239 13.0292C14.9239 11.7492 14.9639 10.1692 14.7239 10.1192C14.5839 10.0892 14.4239 10.5992 13.9939 11.5692H14.0039Z" fill="#F7FCFF"/>
</g>
</svg>
