<svg width="106" height="133" viewBox="0 0 106 133" fill="none" xmlns="http://www.w3.org/2000/svg">
<g id="Group" opacity="0.8">
<path id="Vector" d="M64.6939 6.71922C64.6539 5.36922 64.6139 3.63926 65.1339 3.50926C65.6439 3.37926 66.4739 4.80918 66.9439 5.66918C69.1339 9.65917 70.1839 13.1393 70.8639 15.2493C72.4039 20.0793 73.3439 21.9292 74.4539 26.7692C75.0939 29.5592 75.0539 30.1493 74.8639 30.7593C73.8639 33.9493 69.3839 35.3792 62.5039 37.4892C44.0239 43.1492 41.9339 43.6292 38.9439 44.1492C26.3539 46.3692 23.4239 44.9992 22.0539 43.5992C21.0539 42.5792 19.9339 40.5692 20.6339 39.7992C21.2739 39.0892 23.2139 39.7093 24.5139 39.9993C28.1839 40.8293 29.8139 39.7692 40.1539 37.6592C48.3039 35.9992 48.1739 36.4692 53.6539 35.0992C53.6539 35.0992 58.074 33.9892 63.824 31.5992C63.824 31.5992 65.4839 30.9092 67.6439 29.6192C67.8039 29.5192 68.2939 29.2293 68.8839 28.7593C69.4939 28.2693 69.8839 27.9592 70.0639 27.5992C70.5039 26.7292 69.6839 25.6892 69.2139 24.9492C69.1539 24.8592 68.6239 23.2192 67.5639 19.9392C67.2539 18.9792 66.1139 15.4093 65.1639 11.0093C65.1239 10.8393 64.7639 9.07922 64.6939 6.71922Z" fill="#3697CE"/>
<path id="Vector_2" d="M1.13397 15.9891C1.95397 15.8591 3.47397 21.8491 4.72397 26.6491C11.124 51.3391 10.134 44.2991 13.664 59.2991C20.394 87.9791 17.344 85.299 21.634 97.139C22.904 100.629 25.234 106.569 25.814 115.019C26.404 123.639 24.964 131.999 23.594 132.119C22.644 132.199 23.224 128.229 19.934 123.139C16.854 118.369 13.5339 117.529 10.7639 111.879C10.1039 110.539 9.65396 109.289 9.15396 107.519C5.97396 96.219 5.27395 79.1591 4.64395 69.3591C4.01395 59.5191 3.08395 51.1891 2.98395 50.3291C2.29395 44.2391 1.31396 36.8891 0.843962 26.7191C0.613962 21.6791 0.37396 16.1191 1.15396 15.9891H1.13397Z" fill="#3697CE"/>
<path id="Vector_3" d="M64.9239 3.70906C65.3339 3.01906 65.9239 2.96907 69.9539 2.08907C77.3639 0.459068 78.8439 -0.150932 80.0539 0.839068C81.174 1.74907 80.994 3.13909 81.294 5.60909C81.874 10.3391 83.464 12.619 85.044 16.569C87.634 23.069 88.574 30.009 90.854 40.149C93.794 53.199 94.434 51.3791 100.044 72.7491C102.404 81.7391 103.964 88.4391 104.694 97.2091C105.194 103.279 106.114 115.639 101.544 117.489C100.524 117.899 99.5539 117.669 99.2339 117.599C87.0439 114.959 25.014 136.749 22.944 132.089C22.924 132.049 22.9539 131.609 23.0239 130.739C23.2639 127.429 23.594 124.969 23.594 124.959C23.754 123.759 24.3039 117.739 22.9939 107.729C21.5939 97.0891 18.8339 87.6591 15.7339 74.7591C11.7139 58.0391 12.344 57.1791 8.71395 43.0791C4.84395 28.0191 2.90396 20.4991 1.50396 18.5991C1.24396 18.2391 -0.0460513 16.5891 0.493949 15.6191C0.783949 15.0991 1.45395 15.0491 2.68395 14.8691C2.68395 14.8691 5.90396 14.4091 9.44396 13.5891C11.814 13.0391 11.994 12.7291 12.664 12.9791C14.074 13.4991 14.374 15.2991 15.374 18.4691C16.634 22.4891 16.664 21.2491 18.064 25.6291C19.534 30.2291 20.274 32.529 20.544 35.159C20.784 37.469 20.7439 39.789 22.2139 42.179C22.7239 43.019 23.344 43.7291 24.254 44.1291C25.734 44.7891 27.264 44.2991 27.914 44.0991C30.944 43.1791 34.214 43.309 37.314 42.649C43.524 41.329 42.434 41.8391 47.294 40.7591C53.804 39.3091 52.5939 39.1091 59.9839 37.3491C64.0539 36.3791 67.844 34.399 71.914 33.419C72.424 33.299 73.6839 32.9991 74.3039 31.9691C75.2439 30.3891 74.0439 28.1491 73.2639 26.4991C70.6239 20.8991 72.424 21.1791 69.714 14.8291C66.754 7.90906 63.794 5.64908 64.934 3.72908L64.9239 3.70906Z" fill="#B8D5F3"/>
<path id="Vector_4" d="M65.744 117.779C61.874 118.589 58.934 119.449 53.054 121.189C46.724 123.059 40.424 125.099 32.574 125.749C31.994 125.799 28.354 126.079 28.144 125.259C27.984 124.639 29.954 124.009 32.164 121.829C33.184 120.819 34.774 119.249 35.294 117.229C36.004 114.459 34.014 113.439 33.124 109.299C32.264 105.319 33.8039 104.899 33.4839 98.889C33.3039 95.639 33.174 93.209 31.894 90.519C29.804 86.129 27.324 86.6391 24.974 82.1591C23.314 78.9991 23.124 76.0191 22.944 73.2091C22.664 68.8591 23.324 64.3591 23.934 64.3491C24.254 64.3491 24.3939 65.6091 25.2339 69.4391C27.0239 77.5991 28.014 79.279 28.604 80.139C30.084 82.299 30.534 81.5491 33.064 84.2991C34.654 86.0391 38.264 89.9591 38.804 95.2191C39.134 98.4391 37.914 98.2291 37.814 104.079C37.774 106.519 37.944 109.089 38.634 111.929C39.274 114.529 39.664 116.039 41.024 117.479C43.094 119.669 45.844 120.029 46.524 120.099C49.334 120.389 50.074 119.099 55.034 117.479C57.994 116.519 61.0539 115.519 65.0139 115.589C67.2139 115.619 68.374 115.969 72.084 115.919C74.514 115.889 76.054 115.709 76.064 115.829C76.094 116.039 71.1239 116.669 65.7639 117.789L65.744 117.779Z" fill="#DFEFFF"/>
</g>
</svg>
