<?xml version="1.0" encoding="UTF-8"?><svg id="Layer_1" xmlns="http://www.w3.org/2000/svg" viewBox="0 0 346 42.149"><defs><style>.cls-1{fill:#fff;}.cls-1,.cls-2{stroke-width:0px;}.cls-2{fill:#ee2257;}</style></defs><path class="cls-1" d="m20.7488,6.5923h306c7.4558,0,13.5,6.0442,13.5,13.5h0c0,7.4558-6.0442,13.5-13.5,13.5H20.7488c-7.4558,0-13.5-6.0442-13.5-13.5h0c0-7.4558,6.0442-13.5,13.5-13.5Z"/><path class="cls-1" d="m20.7488,6.5923h306c7.4558,0,13.5,6.0442,13.5,13.5h0c0,7.4558-6.0442,13.5-13.5,13.5H20.7488c-7.4558,0-13.5-6.0442-13.5-13.5h0c0-7.4558,6.0442-13.5,13.5-13.5Z"/><path class="cls-1" d="m20.7488,6.5923h306c7.4558,0,13.5,6.0442,13.5,13.5h0c0,7.4558-6.0442,13.5-13.5,13.5H20.7488c-7.4558,0-13.5-6.0442-13.5-13.5h0c0-7.4558,6.0442-13.5,13.5-13.5Z"/><path class="cls-1" d="m20.2488,6.4257h261c7.4558,0,13.5,6.0442,13.5,13.5h0c0,7.4558-6.0442,13.5-13.5,13.5H20.2488c-7.4558,0-13.5-6.0442-13.5-13.5h0c0-7.4558,6.0442-13.5,13.5-13.5Z"/><path class="cls-1" d="m20.2488,6.4257h261c7.4558,0,13.5,6.0442,13.5,13.5h0c0,7.4558-6.0442,13.5-13.5,13.5H20.2488c-7.4558,0-13.5-6.0442-13.5-13.5h0c0-7.4558,6.0442-13.5,13.5-13.5Z"/><path class="cls-2" d="m20.2488,6.4257h261c7.4558,0,13.5,6.0442,13.5,13.5h0c0,7.4558-6.0442,13.5-13.5,13.5H20.2488c-7.4558,0-13.5-6.0442-13.5-13.5h0c0-7.4558,6.0442-13.5,13.5-13.5Z"/></svg>