<?xml version="1.0" encoding="UTF-8"?><svg id="Layer_1" xmlns="http://www.w3.org/2000/svg" viewBox="0 0 149.627 50"><defs><style>.cls-1{fill:#fff;}.cls-1,.cls-2{stroke-width:0px;}.cls-2{fill:#ff1054;}</style></defs><g id="Layer_2"><g id="Layer_1-2"><rect class="cls-1" y="0" width="149.627" height="50"/><path class="cls-2" d="m97.53,31.214c.6526.0244,1.303-.0901,1.908-.336.5616-.286,1.0486-.6993,1.422-1.207h.072l.53,1.364h1.911v-6.687c.0776-1.0105-.3207-1.9993-1.077-2.674-.9004-.6432-1.996-.9542-3.1-.88-1.3353-.0166-2.6542.2949-3.841.907l.906,1.849c.8819-.4353,1.8445-.6828,2.827-.727.7444-.1157,1.4416.3939,1.5574,1.1383.0199.128.0215.2583.0046.3867v.44l-1.741.054c-1.1788-.0323-2.344.2578-3.37.839-.7607.5344-1.1851,1.4288-1.118,2.356-.0561.8646.2442,1.7145.831,2.352.6148.5745,1.4379.8726,2.278.825Zm.288-4.362c.542-.3029,1.1565-.4516,1.777-.43l1.059-.036v.825c.0246.5435-.1826,1.072-.57,1.454-.4138.3786-.9618.5759-1.522.548-.8847,0-1.3273-.386-1.328-1.158-.0305-.4758.1912-.9327.584-1.203Z"/><path class="cls-2" d="m107.962,26.314c-.0687-.879.1082-1.7597.511-2.544.3788-.5312,1.0099-.8232,1.66-.768.4758-.0406.9394.1641,1.23.543.2904.4915.4246,1.0595.385,1.629v5.861h2.738v-6.543c.0679-.9947-.2578-1.9763-.907-2.733-.7142-.6734-1.6779-1.0169-2.657-.947-.6287-.0112-1.2521.1162-1.826.373-.5196.2343-.9583.617-1.261,1.1h-.152l-.368-1.285h-2.091v10.035h2.738v-4.721Z"/><path class="cls-2" d="m116.064,34.719c.9768.5471,2.0906.8012,3.208.732,1.4691.0888,2.9326-.248,4.215-.97.9424-.5809,1.502-1.6215,1.467-2.728.0532-.7913-.2673-1.5618-.866-2.082-.7322-.5202-1.6219-.7711-2.518-.71h-1.7c-1.006,0-1.5087-.1973-1.508-.592.0158-.2934.1727-.561.421-.718l.4.045.493.027c1.1149.0668,2.2191-.2509,3.128-.9.7561-.6113,1.1749-1.5469,1.127-2.518.006-.5329-.1438-1.056-.431-1.505l1.571-.4v-1.4h-3.5c-.108-.024-.3547-.0617-.74-.113-.3314-.0463-.6654-.0716-1-.076-1.0918-.071-2.1734.2479-3.052.9-.7291.6364-1.1232,1.5739-1.068,2.54-.0152.6237.1445,1.2393.461,1.777.292.4878.7305.871,1.253,1.095-.3582.1968-.6826.4497-.961.749-.4349.5271-.4424,1.2864-.018,1.822.1903.2564.4439.4591.736.588-.6275.1183-1.2053.4216-1.659.871-.3798.4118-.583.9561-.566,1.516-.0253.8324.3971,1.6146,1.107,2.05Zm3.766-12.246c.992,0,1.4883.604,1.489,1.812.025.4587-.1011.9129-.359,1.293-.2763.3337-.6983.5111-1.13.475-.433.0333-.8556-.1434-1.136-.475-.2667-.3765-.3979-.8323-.372-1.293,0-1.208.5027-1.812,1.508-1.812Zm-2,9.042c.3731-.2467.814-.3708,1.261-.355h1.419c.5175-.0267,1.0353.0466,1.525.216.3173.1248.5172.4408.494.781-.0276.5028-.3582.9382-.835,1.1-.7305.3005-1.518.437-2.307.4-.5265.0282-1.0511-.0829-1.521-.322-.3347-.1696-.5449-.5138-.543-.889-.0023-.3773.1901-.7292.509-.931h-.002Z"/><path class="cls-2" d="m86.714,26.314c-.0657-.8746.1111-1.7504.511-2.531.374-.5385,1.0066-.8369,1.66-.783,1.0767,0,1.615.7247,1.615,2.174v5.861h2.738v-6.543c.0664-.9946-.2628-1.9751-.916-2.728-.7231-.6773-1.6958-1.0223-2.684-.952-1.1665-.0827-2.284.4829-2.908,1.472h-.143l.063-.808c.041-.819.063-1.34.063-1.561v-2.846h-2.737v13.966h2.738v-4.721Z"/><path class="cls-2" d="m78.6,31.214c.5742.0111,1.1479-.0429,1.71-.161.4762-.1187.9294-.3157,1.341-.583v-2.343c-.4149.2827-.8682.5047-1.346.659-.4739.1456-.9673.2177-1.463.214-1.424,0-2.1363-.9817-2.137-2.945,0-2.0213.7123-3.0323,2.137-3.033.3771.0007.7521.0567,1.113.166.3707.1107.7707.253,1.2.427l.809-2.119c-.9745-.4661-2.0439-.6995-3.124-.682-1.3543-.0889-2.6825.4023-3.653,1.351-.915,1.0887-1.3718,2.4902-1.274,3.909.0013,3.4267,1.5637,5.14,4.687,5.14Z"/><path class="cls-2" d="m130.3,31.214c.6683.0108,1.3359-.0478,1.992-.175.5319-.1121,1.0474-.2916,1.534-.534v-2.118c-.5396.2588-1.1051.46-1.687.6-.5622.1287-1.1373.1921-1.714.189-.6688.0407-1.3247-.1963-1.813-.655-.4548-.4966-.7018-1.1487-.69-1.822h6.47v-1.327c.0707-1.2297-.3559-2.4362-1.184-3.348-.8881-.8459-2.0877-1.2849-3.312-1.212-1.3077-.0714-2.5814.4319-3.487,1.378-.9009,1.0924-1.3519,2.487-1.261,3.9-.0886,1.3966.4052,2.7676,1.364,3.787,1.0313.9372,2.3969,1.4192,3.788,1.337Zm-1.751-7.9c.3505-.3769.85-.579,1.364-.552.5191-.0243,1.0233.177,1.383.552.3654.4378.5541.9963.529,1.566h-3.845c.0079-.5711.2068-1.1231.565-1.568l.004.002Z"/><rect class="cls-2" x="56.626" y="21.001" width="2.738" height="10.034"/><path class="cls-2" d="m66.31,31.214c.5739.0111,1.1473-.0429,1.709-.161.4766-.1185.9301-.3155,1.342-.583v-2.343c-.4149.2827-.8682.5047-1.346.659-.4739.1456-.9673.2177-1.463.214-1.4253,0-2.1377-.9817-2.137-2.945,0-2.0213.7123-3.0323,2.137-3.033.3771.0008.7521.0567,1.113.166.37.1107.77.253,1.2.427l.808-2.119c-.9742-.466-2.0432-.6995-3.123-.682-1.353-.0886-2.6798.4018-3.65,1.349-.9158,1.0884-1.3729,2.49-1.275,3.909-.0007,3.428,1.561,5.142,4.685,5.142Z"/><rect class="cls-2" x="25.273" y="17.069" width="2.738" height="13.965"/><path class="cls-2" d="m33.324,31.214c.6523.0246,1.3024-.09,1.907-.336.5616-.286,1.0486-.6993,1.422-1.207h.072l.53,1.364h1.912v-6.687c.0773-1.0107-.3213-1.9995-1.078-2.674-.8989-.6423-1.9926-.9533-3.095-.88-1.3356-.0165-2.6548.295-3.842.907l.906,1.849c.8823-.4352,1.8452-.6827,2.828-.727.7445-.1152,1.4413.395,1.5565,1.1394.0197.1277.0213.2575.0045.3856v.44l-1.741.054c-1.1787-.0321-2.3439.258-3.37.839-.76.5349-1.1839,1.4291-1.117,2.356-.0563.8645.2436,1.7143.83,2.352.6142.5736,1.4359.8716,2.275.825Zm.287-4.362c.542-.3029,1.1565-.4516,1.777-.43l1.059-.036v.825c.0249.5434-.1819,1.0718-.569,1.454-.4138.3786-.9618.5759-1.522.548-.886,0-1.3287-.386-1.328-1.158-.0308-.4756.1906-.9324.583-1.203Z"/><path class="cls-2" d="m17.346,31.385c0-.1333-.0477-.618-.143-1.454h.143c.6615.8522,1.6953,1.3305,2.773,1.283.7308.0167,1.4479-.2002,2.047-.619.6131-.4563,1.0792-1.082,1.341-1.8.3333-.8933.4934-1.8418.472-2.795.078-1.3462-.2743-2.6823-1.006-3.815-.6356-.8986-1.6822-1.4151-2.782-1.373-1.1485-.0567-2.2375.5137-2.845,1.49h-.126l-.386-1.302h-2.225v14.45h2.737v-4.065Zm0-5.7c-.0496-.7197.1191-1.4377.484-2.06.361-.439.9146-.6726,1.481-.625.5751-.0375,1.1234.2477,1.423.74.3457.6873.5024,1.4542.454,2.222,0,2.0253-.6137,3.038-1.841,3.038-.5942.0468-1.1701-.2182-1.521-.7-.3769-.7107-.5434-1.5141-.48-2.316v-.299Z"/><path class="cls-2" d="m58,19.753c.404.031.8042-.0963,1.116-.355.259-.2626.3942-.6229.372-.991,0-.8913-.496-1.3373-1.488-1.338-.992-.0007-1.489.4453-1.491,1.338,0,.8967.497,1.3453,1.491,1.346Z"/><path class="cls-2" d="m49.483,27.894c-.0684.8942.1986,1.7819.749,2.49.6407.6074,1.5118.9098,2.391.83.8605.0256,1.7168-.1305,2.513-.458v-2.037c-.5555.19-1.1362.2962-1.723.315-.3127.0154-.6202-.0838-.865-.279-.2342-.2224-.3549-.5391-.328-.861v-4.838h2.809v-2.056h-2.809v-2.136h-1.751l-.789,2.119-1.508.915v1.158h1.311v4.838Z"/><path class="cls-2" d="m41.443,25.874c.5287.3667,1.0995.6689,1.7.9.538.228.9687.428,1.292.6.2484.1191.4781.2737.682.459.1355.14.2077.3293.2.524,0,.5747-.4963.862-1.489.862-.5691-.0118-1.1346-.0931-1.684-.242-.5905-.1448-1.1658-.3457-1.718-.6v2.262c.4642.1968.9484.3426,1.444.435.6164.1072,1.2414.1568,1.867.148,1.1287.08,2.2534-.2027,3.21-.807.7241-.5587,1.1253-1.439,1.072-2.352.0114-.4422-.0779-.8813-.261-1.284-.1887-.3772-.4655-.7034-.807-.951-.5361-.365-1.1147-.6632-1.723-.888-.5929-.2148-1.1652-.4825-1.71-.8-.2317-.1305-.3796-.3713-.391-.637,0-.4367.404-.655,1.212-.655.4536,0,.9044.0695,1.337.206.4782.1531.9485.3299,1.409.53l.825-1.984c-1.1039-.5177-2.3078-.7873-3.527-.79-1.0318-.0625-2.058.193-2.94.732-.6792.4647-1.0708,1.2468-1.036,2.069-.0135.4506.0704.8988.246,1.314.1809.3767.4523.7028.79.949Z"/></g></g></svg>